<svg width="20" height="24" viewBox="0 0 20 24" fill="none" xmlns="http://www.w3.org/2000/svg">
<path d="M19 22.4516H17.4516V3.48387C17.4516 3.05632 17.105 2.70968 16.6774 2.70968H10.871V0.774194C10.871 0.346645 10.5244 0 10.0968 0H4.72583C4.29828 0 3.95164 0.346645 3.95164 0.774194V2.70968H3.3226C2.89506 2.70968 2.54841 3.05632 2.54841 3.48387V22.4516H1.00002C0.572475 22.4516 0.22583 22.7983 0.22583 23.2258C0.22583 23.6534 0.572475 24 1.00002 24H19C19.4276 24 19.7742 23.6534 19.7742 23.2258C19.7742 22.7983 19.4276 22.4516 19 22.4516ZM5.50002 1.54839H9.32261V2.70968H5.50002V1.54839ZM8.45164 22.4516V19.1613H11.5484V22.4516H8.45164ZM13.0968 22.4516V19.1613H13.4355C13.8631 19.1613 14.2097 18.8146 14.2097 18.3871C14.2097 17.9595 13.8631 17.6129 13.4355 17.6129C10.7426 17.6129 9.0588 17.6129 6.56454 17.6129C6.13699 17.6129 5.79035 17.9595 5.79035 18.3871C5.79035 18.8146 6.13699 19.1613 6.56454 19.1613H6.90325V22.4516H4.0968V4.25806H15.9032V22.4516H13.0968ZM8.88712 6.53226C8.88712 6.95981 8.54048 7.30645 8.11293 7.30645H7.24196C6.81441 7.30645 6.46777 6.95981 6.46777 6.53226C6.46777 6.10471 6.81441 5.75806 7.24196 5.75806H8.11293C8.54048 5.75806 8.88712 6.10471 8.88712 6.53226ZM13.4839 6.53226C13.4839 6.95981 13.1373 7.30645 12.7097 7.30645H11.8387C11.4111 7.30645 11.0645 6.95981 11.0645 6.53226C11.0645 6.10471 11.4111 5.75806 11.8387 5.75806H12.7097C13.1373 5.75806 13.4839 6.10471 13.4839 6.53226ZM8.88712 9.43548C8.88712 9.86303 8.54048 10.2097 8.11293 10.2097H7.24196C6.81441 10.2097 6.46777 9.86303 6.46777 9.43548C6.46777 9.00794 6.81441 8.66129 7.24196 8.66129H8.11293C8.54048 8.66129 8.88712 9.00794 8.88712 9.43548ZM13.4839 9.43548C13.4839 9.86303 13.1373 10.2097 12.7097 10.2097H11.8387C11.4111 10.2097 11.0645 9.86303 11.0645 9.43548C11.0645 9.00794 11.4111 8.66129 11.8387 8.66129H12.7097C13.1373 8.66129 13.4839 9.00794 13.4839 9.43548ZM8.88712 12.3387C8.88712 12.7663 8.54048 13.1129 8.11293 13.1129H7.24196C6.81441 13.1129 6.46777 12.7663 6.46777 12.3387C6.46777 11.9112 6.81441 11.5645 7.24196 11.5645H8.11293C8.54048 11.5645 8.88712 11.9112 8.88712 12.3387ZM13.4839 12.3387C13.4839 12.7663 13.1373 13.1129 12.7097 13.1129H11.8387C11.4111 13.1129 11.0645 12.7663 11.0645 12.3387C11.0645 11.9112 11.4111 11.5645 11.8387 11.5645H12.7097C13.1373 11.5645 13.4839 11.9112 13.4839 12.3387ZM8.88712 15.2419C8.88712 15.6695 8.54048 16.0161 8.11293 16.0161H7.24196C6.81441 16.0161 6.46777 15.6695 6.46777 15.2419C6.46777 14.8144 6.81441 14.4677 7.24196 14.4677H8.11293C8.54048 14.4677 8.88712 14.8144 8.88712 15.2419ZM13.4839 15.2419C13.4839 15.6695 13.1373 16.0161 12.7097 16.0161H11.8387C11.4111 16.0161 11.0645 15.6695 11.0645 15.2419C11.0645 14.8144 11.4111 14.4677 11.8387 14.4677H12.7097C13.1373 14.4677 13.4839 14.8144 13.4839 15.2419Z" fill="#3A76F0"/>
</svg>
