<svg width="33" height="34" viewBox="0 0 33 34" fill="none" xmlns="http://www.w3.org/2000/svg">
<path d="M9.91671 31.1667H5.66671C4.91526 31.1667 4.19459 30.8682 3.66324 30.3368C3.13188 29.8055 2.83337 29.0848 2.83337 28.3333V18.4167C2.83337 17.6652 3.13188 16.9446 3.66324 16.4132C4.19459 15.8819 4.91526 15.5833 5.66671 15.5833H9.91671M19.8334 12.75V7.08334C19.8334 5.95617 19.3856 4.87517 18.5886 4.07814C17.7915 3.28111 16.7105 2.83334 15.5834 2.83334L9.91671 15.5833V31.1667H25.8967C26.58 31.1744 27.2431 30.9349 27.7637 30.4924C28.2844 30.0498 28.6276 29.434 28.73 28.7583L30.685 16.0083C30.7467 15.6023 30.7193 15.1876 30.6048 14.7932C30.4903 14.3988 30.2914 14.0339 30.0218 13.724C29.7523 13.4141 29.4187 13.1664 29.0439 12.9982C28.6692 12.8301 28.2624 12.7454 27.8517 12.75H19.8334Z" stroke="#4A85F8" stroke-width="4" stroke-linecap="round" stroke-linejoin="round"/>
</svg>
