<svg width="24" height="24" viewBox="0 0 24 24" fill="none" xmlns="http://www.w3.org/2000/svg">
<path d="M13.5063 6.02515H9.74061C9.35229 6.02515 9.03748 6.33996 9.03748 6.72827V12.0501H8.23437C7.84606 12.0501 7.53125 12.3649 7.53125 12.7533C7.53125 13.1416 7.84606 13.4564 8.23437 13.4564H9.03748V15.0626H8.23437C7.84606 15.0626 7.53125 15.3775 7.53125 15.7658C7.53125 16.1541 7.84606 16.4689 8.23437 16.4689H9.03748V18.0251C9.03748 18.4135 9.35229 18.7283 9.74061 18.7283C10.1289 18.7283 10.4437 18.4135 10.4437 18.0251V16.4689H13.5063C13.8946 16.4689 14.2094 16.1541 14.2094 15.7658C14.2094 15.3775 13.8946 15.0626 13.5063 15.0626H10.4437V13.4564H13.5063C15.5551 13.4564 17.2219 11.7896 17.2219 9.74074C17.2218 7.6413 15.5117 6.02515 13.5063 6.02515ZM13.5063 12.0501H10.4437V7.4314H13.5063C14.772 7.4314 15.8156 8.45233 15.8156 9.74079C15.8156 11.0142 14.7797 12.0501 13.5063 12.0501Z" fill="#878686"/>
<path d="M12 0C5.38317 0 0 5.38317 0 12C0 18.6168 5.38317 24 12 24C18.6168 24 24 18.6168 24 12C24 5.38317 18.6168 0 12 0ZM12 22.5938C6.15858 22.5938 1.40625 17.8414 1.40625 12C1.40625 6.15858 6.15858 1.40625 12 1.40625C17.8414 1.40625 22.5938 6.15858 22.5938 12C22.5938 17.8414 17.8414 22.5938 12 22.5938Z" fill="#878686"/>
</svg>
